<svg id="visual" viewBox="0 0 900 600" width="900" height="600" xmlns="http://www.w3.org/2000/svg" xmlns:xlink="http://www.w3.org/1999/xlink" version="1.1"><rect x="0" y="0" width="900" height="600" fill="#101010"></rect><defs><linearGradient id="grad1_0" x1="33.3%" y1="0%" x2="100%" y2="100%"><stop offset="20%" stop-color="#101010" stop-opacity="1"></stop><stop offset="80%" stop-color="#101010" stop-opacity="1"></stop></linearGradient></defs><defs><linearGradient id="grad2_0" x1="0%" y1="0%" x2="66.7%" y2="100%"><stop offset="20%" stop-color="#101010" stop-opacity="1"></stop><stop offset="80%" stop-color="#101010" stop-opacity="1"></stop></linearGradient></defs><g transform="translate(900, 0)"><path d="M0 486.7C-65 472.9 -130.1 459.1 -176 425C-222 390.8 -248.9 336.4 -297 297C-345.1 257.6 -414.5 233.3 -449.7 186.3C-484.9 139.3 -485.8 69.6 -486.7 0L0 0Z" fill="#1a00ff"></path></g><g transform="translate(0, 600)"><path d="M0 -486.7C51.6 -447.3 103.2 -407.9 160 -386.2C216.8 -364.5 278.8 -360.6 330.9 -330.9C383.1 -301.2 425.4 -245.7 449.7 -186.3C474 -126.8 480.4 -63.4 486.7 0L0 0Z" fill="#1a00ff"></path></g></svg>