<?xml version="1.0" encoding="iso-8859-1"?>
<!-- Generator: Adobe Illustrator 19.0.0, SVG Export Plug-In . SVG Version: 6.00 Build 0)  -->
<svg version="1.1" xmlns="http://www.w3.org/2000/svg" xmlns:xlink="http://www.w3.org/1999/xlink" x="0px" y="0px" viewBox="0 0 431.648 431.648">
	<g>
		<g>
			<g>
				<path stroke-opacity="1" fill-opacity="0" stroke="yellow" stroke-width="1" d="M163.823,26.367c-36.172,0-65.601,29.429-65.601,65.602c0,36.172,29.429,65.601,65.601,65.601
				c36.173,0,65.602-29.429,65.602-65.601C229.425,55.796,199.996,26.367,163.823,26.367z" />
				<path stroke-opacity="1" fill-opacity="0" stroke="yellow" stroke-width="1" d="M143.396,83.393c1.4-1.4,2.2-3.33,2.2-5.3c0-1.98-0.8-3.91-2.2-5.31c-1.39-1.39-3.33-2.19-5.3-2.19
				c-1.97,0-3.91,0.8-5.3,2.19c-1.4,1.4-2.2,3.33-2.2,5.31c0,1.97,0.8,3.9,2.2,5.3c1.39,1.4,3.33,2.2,5.3,2.2
				C140.066,85.593,142.006,84.792,143.396,83.393z" />
				<path stroke-opacity="1" fill-opacity="0" stroke="yellow" stroke-width="1" d="M189.546,70.593c-1.97,0-3.9,0.8-5.3,2.19c-1.4,1.4-2.2,3.33-2.2,5.31c0,1.97,0.8,3.9,2.2,5.3c1.4,1.4,3.33,2.2,5.3,2.2
				c1.98,0,3.91-0.81,5.31-2.2c1.39-1.4,2.19-3.33,2.19-5.3c0-1.98-0.8-3.91-2.19-5.31
				C193.457,71.393,191.526,70.593,189.546,70.593z" />
				<path stroke-opacity="1" fill-opacity="0" stroke="yellow" stroke-width="1" d="M176.828,100.62c-7.171,7.17-18.837,7.17-26.008,0c-2.929-2.929-7.678-2.929-10.606,0c-2.929,2.929-2.929,7.678,0,10.606
				c6.509,6.51,15.06,9.764,23.61,9.764c8.551,0,17.102-3.254,23.611-9.764c2.929-2.929,2.929-7.678,0-10.606
				C184.505,97.691,179.756,97.691,176.828,100.62z" />
				<path stroke-opacity="1" fill-opacity="0" stroke="yellow" stroke-width="1" d="M306.324,146.568V37.309C306.324,16.737,289.587,0,269.015,0H58.632C38.061,0,21.324,16.737,21.324,37.309v109.259
				c0,18.385,13.366,33.706,30.892,36.756l-17.903,31.331c-1.661,2.906-1.195,6.561,1.142,8.957
				c1.448,1.485,3.397,2.265,5.372,2.264c1.211,0,2.433-0.293,3.553-0.896l76.335-41.104h148.301
				C289.587,183.876,306.324,167.14,306.324,146.568z M118.824,168.877v-0.001c-1.241,0-2.463,0.308-3.556,0.896l-54.936,29.581
				l11.003-19.256c1.327-2.321,1.317-5.173-0.025-7.486c-1.342-2.312-3.813-3.735-6.487-3.735h-6.191
				c-12.301,0-22.309-10.007-22.309-22.309V37.309C36.324,25.008,46.332,15,58.632,15h210.383c12.301,0,22.309,10.008,22.309,22.309
				v109.259c0,12.301-10.008,22.309-22.309,22.309H118.824z" />
				<path stroke-opacity="1" fill-opacity="0" stroke="yellow" stroke-width="1" d="M373.015,205.771H162.632c-20.572,0-37.309,16.736-37.309,37.309v109.259c0,20.572,16.737,37.309,37.309,37.309h148.301
				l76.335,41.104c1.121,0.604,2.341,0.897,3.553,0.896c1.975,0,3.924-0.779,5.372-2.264c2.337-2.396,2.803-6.051,1.142-8.957
				l-17.903-31.331c17.525-3.05,30.892-18.372,30.892-36.756V243.08C410.324,222.507,393.587,205.771,373.015,205.771z
				 M395.324,352.339c0,12.301-10.008,22.309-22.309,22.309h-6.191c-2.673,0-5.145,1.423-6.487,3.735
				c-1.342,2.313-1.352,5.165-0.025,7.486l11.003,19.256l-54.936-29.581c-1.093-0.588-2.314-0.896-3.556-0.896H162.632
				c-12.301,0-22.309-10.008-22.309-22.309V243.08c0-12.301,10.008-22.309,22.309-22.309h210.383
				c12.301,0,22.309,10.007,22.309,22.309V352.339z" />
				<path stroke-opacity="1" fill-opacity="0" stroke="yellow" stroke-width="1" d="M267.823,234.305c-36.172,0-65.601,29.429-65.601,65.601c0,36.173,29.429,65.602,65.601,65.602
				c36.173,0,65.602-29.429,65.602-65.602C333.425,263.733,303.996,234.305,267.823,234.305z M267.823,350.507
				c-27.901,0-50.601-22.7-50.601-50.602c0-27.901,22.7-50.601,50.601-50.601c27.902,0,50.602,22.7,50.602,50.601
				C318.425,327.808,295.725,350.507,267.823,350.507z" />
				<path stroke-opacity="1" fill-opacity="0" stroke="yellow" stroke-width="1" d="M242.097,293.522c1.98,0,3.91-0.8,5.3-2.19c1.4-1.4,2.2-3.33,2.2-5.31c0-1.97-0.8-3.9-2.2-5.3
				c-1.39-1.4-3.32-2.2-5.3-2.2c-1.98,0-3.91,0.8-5.3,2.2c-1.4,1.4-2.2,3.33-2.2,5.3c0,1.98,0.8,3.91,2.2,5.31
				C238.187,292.723,240.117,293.522,242.097,293.522z" />
				<path stroke-opacity="1" fill-opacity="0" stroke="yellow" stroke-width="1" d="M293.546,278.522c-1.97,0-3.9,0.8-5.3,2.2c-1.4,1.39-2.2,3.33-2.2,5.3c0,1.98,0.8,3.91,2.2,5.31
				c1.4,1.39,3.33,2.19,5.3,2.19c1.98,0,3.91-0.8,5.31-2.19c1.39-1.4,2.19-3.33,2.19-5.31c0-1.97-0.8-3.91-2.19-5.3
				C297.457,279.323,295.526,278.522,293.546,278.522z" />
				<path stroke-opacity="1" fill-opacity="0" stroke="yellow" stroke-width="1" d="M292.573,300.725h-49.5c-4.142,0-7.5,3.358-7.5,7.5c0,17.783,14.467,32.25,32.25,32.25s32.25-14.467,32.25-32.25
				C300.073,304.083,296.715,300.725,292.573,300.725z M267.823,325.475c-6.826,0-12.738-3.985-15.533-9.75h31.065
				C280.561,321.49,274.649,325.475,267.823,325.475z" />
			</g>
		</g>
	</g>
</svg>