<?xml version="1.0" encoding="iso-8859-1"?>
<!-- Generator: Adobe Illustrator 19.0.0, SVG Export Plug-In . SVG Version: 6.00 Build 0)  -->
<svg version="1.1" id="Layer_1" xmlns="http://www.w3.org/2000/svg" xmlns:xlink="http://www.w3.org/1999/xlink" x="0px" y="0px"
	 viewBox="0 0 512 512" style="enable-background:new 0 0 512 512;" xml:space="preserve">
<path style="fill:#B0DACC;" d="M201.463,470.752L201.463,470.752c0-47.839-39.141-86.982-86.982-86.982l0,0
	c-47.839,0-86.982,39.141-86.982,86.982l0,0c0,14.917,12.093,27.01,27.01,27.01h119.942
	C189.371,497.762,201.463,485.669,201.463,470.752z"/>
<g>
	<path style="fill:#211E48;" d="M174.453,512H54.511c-22.744,0-41.248-18.504-41.248-41.248
		c0-55.813,45.407-101.219,101.219-101.219c55.813,0,101.22,45.407,101.22,101.219C215.701,493.496,197.197,512,174.453,512z
		 M114.483,398.008c-40.111,0-72.743,32.631-72.743,72.742c0,7.042,5.729,12.772,12.772,12.772h119.942
		c7.042,0,12.772-5.729,12.772-12.772C187.225,430.641,154.594,398.008,114.483,398.008z"/>
	<path style="fill:#211E48;" d="M114.481,396.958c-42.8,0-77.62-34.82-77.62-77.62s34.82-77.62,77.62-77.62s77.62,34.82,77.62,77.62
		S157.282,396.958,114.481,396.958z M114.481,270.196c-27.097,0-49.143,22.045-49.143,49.143s22.045,49.143,49.143,49.143
		s49.143-22.045,49.143-49.143S141.58,270.196,114.481,270.196z"/>
</g>
<path style="fill:#B0DACC;" d="M484.499,470.752L484.499,470.752c0-47.839-39.141-86.982-86.982-86.982l0,0
	c-47.839,0-86.982,39.141-86.982,86.982l0,0c0,14.917,12.093,27.01,27.01,27.01h119.942
	C472.406,497.762,484.499,485.669,484.499,470.752z"/>
<g>
	<path style="fill:#211E48;" d="M457.489,512H337.547c-22.744,0-41.248-18.504-41.248-41.248
		c0-55.813,45.407-101.219,101.219-101.219c55.813,0,101.22,45.407,101.22,101.219C498.737,493.496,480.233,512,457.489,512z
		 M397.517,398.008c-40.111,0-72.743,32.631-72.743,72.742c0,7.042,5.729,12.772,12.772,12.772h119.942
		c7.042,0,12.772-5.729,12.772-12.772C470.26,430.641,437.628,398.008,397.517,398.008z"/>
	<path style="fill:#211E48;" d="M397.517,396.958c-42.8,0-77.62-34.82-77.62-77.62s34.82-77.62,77.62-77.62s77.62,34.82,77.62,77.62
		S440.317,396.958,397.517,396.958z M397.517,270.196c-27.097,0-49.143,22.045-49.143,49.143s22.045,49.143,49.143,49.143
		c27.098,0,49.143-22.045,49.143-49.143S424.615,270.196,397.517,270.196z"/>
	<path style="fill:#211E48;" d="M372.162,225.802c-5.052,0-9.981-1.934-13.778-5.587l-47.657-45.857
		c-5.667-5.453-5.841-14.466-0.387-20.133c5.453-5.667,14.466-5.841,20.133-0.387l35.234,33.904l2.917-25.276
		c0.83-7.185,6.913-12.607,14.144-12.607h31.414V28.477H97.818v121.383h31.414c7.232,0,13.316,5.422,14.144,12.607l2.917,25.276
		l35.235-33.904c5.667-5.452,14.68-5.278,20.133,0.387c5.452,5.665,5.28,14.68-0.387,20.133l-47.657,45.857
		c-5.502,5.292-13.381,6.978-20.567,4.397c-7.185-2.581-12.192-8.896-13.066-16.479l-3.44-29.796H95.643
		c-14.503,0-26.301-11.798-26.301-26.3V26.301C69.342,11.798,81.14,0,95.641,0h320.716c14.503,0,26.301,11.798,26.301,26.301
		v125.735c0,14.503-11.798,26.301-26.301,26.301h-20.902l-3.44,29.796c-0.876,7.583-5.882,13.898-13.066,16.479
		C376.724,225.412,374.43,225.802,372.162,225.802z"/>
	<path style="fill:#211E48;" d="M264.008,178.336h-16.015c-7.864,0-14.238-6.374-14.238-14.238c0-7.864,6.374-14.238,14.238-14.238
		h16.015c7.864,0,14.238,6.374,14.238,14.238C278.246,171.961,271.871,178.336,264.008,178.336z"/>
</g>
<g>
</g>
<g>
</g>
<g>
</g>
<g>
</g>
<g>
</g>
<g>
</g>
<g>
</g>
<g>
</g>
<g>
</g>
<g>
</g>
<g>
</g>
<g>
</g>
<g>
</g>
<g>
</g>
<g>
</g>
</svg>
