<?xml version="1.0" encoding="iso-8859-1"?>
<!-- Generator: Adobe Illustrator 19.0.0, SVG Export Plug-In . SVG Version: 6.00 Build 0)  -->
<svg version="1.1" xmlns="http://www.w3.org/2000/svg" xmlns:xlink="http://www.w3.org/1999/xlink" x="0px" y="0px" viewBox="0 0 431.648 431.648">
	<g>
		<g>
			<g>
				<path stroke-opacity="1" fill-opacity="0" stroke="yellow" stroke-width="1" d="M163.823,26.367c-36.172,0-65.601,29.429-65.601,65.602c0,36.172,29.429,65.601,65.601,65.601
				c36.173,0,65.602-29.429,65.602-65.601C229.425,55.796,199.996,26.367,163.823,26.367z" />
				<path stroke-opacity="1" fill-opacity="0" stroke="yellow" stroke-width="1" d="M143.396,83.393c1.4-1.4,2.2-3.33,2.2-5.3c0-1.98-0.8-3.91-2.2-5.31c-1.39-1.39-3.33-2.19-5.3-2.19
				c-1.97,0-3.91,0.8-5.3,2.19c-1.4,1.4-2.2,3.33-2.2,5.31c0,1.97,0.8,3.9,2.2,5.3c1.39,1.4,3.33,2.2,5.3,2.2
				C140.066,85.593,142.006,84.792,143.396,83.393z" />
				<path stroke-opacity="1" fill-opacity="0" stroke="yellow" stroke-width="1" d="M189.546,70.593c-1.97,0-3.9,0.8-5.3,2.19c-1.4,1.4-2.2,3.33-2.2,5.31c0,1.97,0.8,3.9,2.2,5.3c1.4,1.4,3.33,2.2,5.3,2.2
				c1.98,0,3.91-0.81,5.31-2.2c1.39-1.4,2.19-3.33,2.19-5.3c0-1.98-0.8-3.91-2.19-5.31
				C193.457,71.393,191.526,70.593,189.546,70.593z" />
				<path stroke-opacity="1" fill-opacity="0" stroke="yellow" stroke-width="1" d="M176.828,100.62c-7.171,7.17-18.837,7.17-26.008,0c-2.929-2.929-7.678-2.929-10.606,0c-2.929,2.929-2.929,7.678,0,10.606
				c6.509,6.51,15.06,9.764,23.61,9.764c8.551,0,17.102-3.254,23.611-9.764c2.929-2.929,2.929-7.678,0-10.606
				C184.505,97.691,179.756,97.691,176.828,100.62z" />
				<path stroke-opacity="1" fill-opacity="0" stroke="yellow" stroke-width="1" d="M306.324,146.568V37.309C306.324,16.737,289.587,0,269.015,0H58.632C38.061,0,21.324,16.737,21.324,37.309v109.259
				c0,18.385,13.366,33.706,30.892,36.756l-17.903,31.331c-1.661,2.906-1.195,6.561,1.142,8.957
				c1.448,1.485,3.397,2.265,5.372,2.264c1.211,0,2.433-0.293,3.553-0.896l76.335-41.104h148.301
				C289.587,183.876,306.324,167.14,306.324,146.568z" />
				<path stroke-opacity="1" fill-opacity="0" stroke="yellow" stroke-width="1" d="M373.015,205.771H162.632c-20.572,0-37.309,16.736-37.309,37.309v109.259c0,20.572,16.737,37.309,37.309,37.309h148.301
				l76.335,41.104c1.121,0.604,2.341,0.897,3.553,0.896c1.975,0,3.924-0.779,5.372-2.264c2.337-2.396,2.803-6.051,1.142-8.957
				l-17.903-31.331c17.525-3.05,30.892-18.372,30.892-36.756V243.08C410.324,222.507,393.587,205.771,373.015,205.771z" />
				<path stroke-opacity="1" fill-opacity="0" stroke="yellow" stroke-width="1" d="M267.823,234.305c-36.172,0-65.601,29.429-65.601,65.601c0,36.173,29.429,65.602,65.601,65.602
				c36.173,0,65.602-29.429,65.602-65.602C333.425,263.733,303.996,234.305,267.823,234.305z" />
				<path stroke-opacity="1" fill-opacity="0" stroke="yellow" stroke-width="1" d="M242.097,293.522c1.98,0,3.91-0.8,5.3-2.19c1.4-1.4,2.2-3.33,2.2-5.31c0-1.97-0.8-3.9-2.2-5.3
				c-1.39-1.4-3.32-2.2-5.3-2.2c-1.98,0-3.91,0.8-5.3,2.2c-1.4,1.4-2.2,3.33-2.2,5.3c0,1.98,0.8,3.91,2.2,5.31
				C238.187,292.723,240.117,293.522,242.097,293.522z" />
				<path stroke-opacity="1" fill-opacity="0" stroke="yellow" stroke-width="1" d="M293.546,278.522c-1.97,0-3.9,0.8-5.3,2.2c-1.4,1.39-2.2,3.33-2.2,5.3c0,1.98,0.8,3.91,2.2,5.31
				c1.4,1.39,3.33,2.19,5.3,2.19c1.98,0,3.91-0.8,5.31-2.19c1.39-1.4,2.19-3.33,2.19-5.31c0-1.97-0.8-3.91-2.19-5.3
				C297.457,279.323,295.526,278.522,293.546,278.522z" />
				<path stroke-opacity="1" fill-opacity="0" stroke="yellow" stroke-width="1" d="M267.823,325.475c-6.826,0-12.738-3.985-15.533-9.75h31.065
				C280.561,321.49,274.649,325.475,267.823,325.475z" />
			</g>
		</g>
	</g>
</svg>