<svg id="visual" viewBox="0 0 960 540" width="960" height="540" xmlns="http://www.w3.org/2000/svg" xmlns:xlink="http://www.w3.org/1999/xlink" version="1.1"><rect width="960" height="540" fill="#001829"></rect><g><g transform="translate(874 55)"><path d="M0 -144L92.6 -110.3L141.8 -25L124.7 72L49.3 135.3L-49.3 135.3L-124.7 72L-141.8 -25L-92.6 -110.3Z" fill="none" stroke="#4800ff" stroke-width="2"></path></g><g transform="translate(834 509)"><path d="M0 -106L68.1 -81.2L104.4 -18.4L91.8 53L36.3 99.6L-36.3 99.6L-91.8 53L-104.4 -18.4L-68.1 -81.2Z" fill="none" stroke="#4800ff" stroke-width="2"></path></g><g transform="translate(527 15)"><path d="M0 -21L13.5 -16.1L20.7 -3.6L18.2 10.5L7.2 19.7L-7.2 19.7L-18.2 10.5L-20.7 -3.6L-13.5 -16.1Z" stroke="#4800ff" fill="none" stroke-width="2"></path></g></g></svg>