<svg id="visual" viewBox="0 0 1920 995" width="1920" height="995" xmlns="http://www.w3.org/2000/svg" xmlns:xlink="http://www.w3.org/1999/xlink" version="1.1"><rect x="0" y="0" width="1920" height="995" fill="#001220"></rect><defs><linearGradient id="grad1_0" x1="48.2%" y1="0%" x2="100%" y2="100%"><stop offset="11.407035175879397%" stop-color="#001220" stop-opacity="1"></stop><stop offset="88.59296482412061%" stop-color="#001220" stop-opacity="1"></stop></linearGradient></defs><defs><linearGradient id="grad2_0" x1="0%" y1="0%" x2="51.8%" y2="100%"><stop offset="11.407035175879397%" stop-color="#001220" stop-opacity="1"></stop><stop offset="88.59296482412061%" stop-color="#001220" stop-opacity="1"></stop></linearGradient></defs><g transform="translate(1920, 0)"><path d="M0 746.3C-135.4 729.6 -270.9 712.9 -373.1 646.3C-475.4 579.6 -544.4 463 -601 347C-657.7 231 -702 115.5 -746.2 0L0 0Z" fill="#0000ff"></path></g><g transform="translate(0, 995)"><path d="M0 -746.2C114.7 -700.6 229.4 -654.9 345.5 -598.4C461.6 -541.9 579.2 -474.7 646.3 -373.1C713.3 -271.6 729.8 -135.8 746.3 0L0 0Z" fill="#0000ff"></path></g></svg>