<svg id="visual" viewBox="0 0 1920 1080" width="1920" height="1080" xmlns="http://www.w3.org/2000/svg" xmlns:xlink="http://www.w3.org/1999/xlink" version="1.1"><rect x="0" y="0" width="1920" height="1080" fill="#001220"></rect><g fill="none" stroke="#0000ff" stroke-width="5"><circle r="83" cx="191" cy="452"></circle><circle r="4" cx="65" cy="733"></circle><circle r="73" cx="560" cy="289"></circle><circle r="36" cx="913" cy="537"></circle><circle r="66" cx="1352" cy="419"></circle><circle r="38" cx="1197" cy="271"></circle><circle r="80" cx="1019" cy="996"></circle><circle r="77" cx="49" cy="44"></circle><circle r="42" cx="447" cy="714"></circle><circle r="5" cx="1591" cy="1061"></circle><circle r="16" cx="1825" cy="525"></circle><circle r="49" cx="680" cy="671"></circle><circle r="80" cx="1227" cy="825"></circle><circle r="16" cx="1386" cy="650"></circle><circle r="63" cx="463" cy="473"></circle><circle r="19" cx="477" cy="1024"></circle><circle r="67" cx="854" cy="92"></circle><circle r="53" cx="1592" cy="8"></circle><circle r="12" cx="1786" cy="778"></circle><circle r="40" cx="1788" cy="122"></circle><circle r="6" cx="1130" cy="42"></circle><circle r="25" cx="960" cy="309"></circle><circle r="61" cx="357" cy="109"></circle><circle r="3" cx="663" cy="59"></circle><circle r="16" cx="269" cy="961"></circle><circle r="57" cx="30" cy="326"></circle><circle r="43" cx="1169" cy="499"></circle><circle r="63" cx="276" cy="703"></circle><circle r="74" cx="1402" cy="253"></circle><circle r="6" cx="1734" cy="307"></circle><circle r="73" cx="1576" cy="370"></circle><circle r="27" cx="19" cy="495"></circle><circle r="10" cx="691" cy="484"></circle><circle r="11" cx="24" cy="907"></circle><circle r="33" cx="1821" cy="994"></circle><circle r="27" cx="742" cy="960"></circle><circle r="30" cx="798" cy="258"></circle><circle r="74" cx="962" cy="834"></circle><circle r="60" cx="1335" cy="44"></circle><circle r="6" cx="1536" cy="549"></circle><circle r="6" cx="207" cy="280"></circle><circle r="41" cx="1526" cy="891"></circle><circle r="52" cx="1205" cy="1073"></circle><circle r="24" cx="1608" cy="184"></circle><circle r="67" cx="1609" cy="713"></circle><circle r="56" cx="593" cy="845"></circle><circle r="58" cx="1355" cy="945"></circle><circle r="13" cx="1110" cy="700"></circle><circle r="57" cx="92" cy="1065"></circle><circle r="3" cx="1910" cy="366"></circle><circle r="23" cx="380" cy="280"></circle><circle r="15" cx="868" cy="1079"></circle></g></svg>